{
  "asset": {
    "generator": "Khronos glTF Blender I/O v5.1.18",
    "version": "2.0"
  },
  "scene": 0,
  "scenes": [
    {
      "name": "Scene",
      "nodes": [
        0,
        1,
        2,
        3
      ]
    }
  ],
  "nodes": [
    {
      "mesh": 0,
      "name": "vintage_stapler_top",
      "translation": [
        0.06865425407886505,
        0.018019484356045723,
        0
      ]
    },
    {
      "mesh": 1,
      "name": "vintage_stapler_staple_single",
      "translation": [
        0,
        0.08054333180189133,
        0
      ]
    },
    {
      "mesh": 2,
      "name": "vintage_stapler_staples",
      "translation": [
        0,
        0.06426005065441132,
        0
      ]
    },
    {
      "mesh": 3,
      "name": "vintage_stapler_base"
    }
  ],
  "materials": [
    {
      "doubleSided": true,
      "name": "vintage_stapler",
      "normalTexture": {
        "index": 0
      },
      "pbrMetallicRoughness": {
        "baseColorTexture": {
          "index": 1
        },
        "metallicRoughnessTexture": {
          "index": 2
        }
      }
    }
  ],
  "meshes": [
    {
      "name": "Cylinder.013",
      "primitives": [
        {
          "attributes": {
            "POSITION": 0,
            "NORMAL": 1,
            "TEXCOORD_0": 2
          },
          "indices": 3,
          "material": 0
        }
      ]
    },
    {
      "name": "Cube.039",
      "primitives": [
        {
          "attributes": {
            "POSITION": 4,
            "NORMAL": 5,
            "TEXCOORD_0": 6
          },
          "indices": 7,
          "material": 0
        }
      ]
    },
    {
      "name": "Cube.040",
      "primitives": [
        {
          "attributes": {
            "POSITION": 8,
            "NORMAL": 9,
            "TEXCOORD_0": 10
          },
          "indices": 7,
          "material": 0
        }
      ]
    },
    {
      "name": "Cylinder.015",
      "primitives": [
        {
          "attributes": {
            "POSITION": 11,
            "NORMAL": 12,
            "TEXCOORD_0": 13
          },
          "indices": 14,
          "material": 0
        }
      ]
    }
  ],
  "textures": [
    {
      "sampler": 0,
      "source": 0
    },
    {
      "sampler": 0,
      "source": 1
    },
    {
      "sampler": 0,
      "source": 2
    }
  ],
  "images": [
    {
      "mimeType": "image/jpeg",
      "name": "vintage_stapler_nor_gl",
      "uri": "textures/vintage_stapler_nor_gl_1k.jpg"
    },
    {
      "mimeType": "image/jpeg",
      "name": "vintage_stapler_diff",
      "uri": "textures/vintage_stapler_diff_1k.jpg"
    },
    {
      "mimeType": "image/jpeg",
      "name": "vintage_stapler_metal-vintage_stapler_rough",
      "uri": "textures/vintage_stapler_arm_1k.jpg"
    }
  ],
  "accessors": [
    {
      "bufferView": 0,
      "componentType": 5126,
      "count": 1288,
      "max": [
        0.009059201925992966,
        0.03381491079926491,
        0.013654444366693497
      ],
      "min": [
        -0.14780527353286743,
        -0.008628541603684425,
        -0.01365443505346775
      ],
      "type": "VEC3"
    },
    {
      "bufferView": 1,
      "componentType": 5126,
      "count": 1288,
      "type": "VEC3"
    },
    {
      "bufferView": 2,
      "componentType": 5126,
      "count": 1288,
      "type": "VEC2"
    },
    {
      "bufferView": 3,
      "componentType": 5123,
      "count": 4575,
      "type": "SCALAR"
    },
    {
      "bufferView": 4,
      "componentType": 5126,
      "count": 48,
      "max": [
        0.0003679022192955017,
        0.0019061134662479162,
        0.004711555317044258
      ],
      "min": [
        -0.00025504082441329956,
        -0.0027750669978559017,
        -0.004711555317044258
      ],
      "type": "VEC3"
    },
    {
      "bufferView": 5,
      "componentType": 5126,
      "count": 48,
      "type": "VEC3"
    },
    {
      "bufferView": 6,
      "componentType": 5126,
      "count": 48,
      "type": "VEC2"
    },
    {
      "bufferView": 7,
      "componentType": 5123,
      "count": 84,
      "type": "SCALAR"
    },
    {
      "bufferView": 8,
      "componentType": 5126,
      "count": 48,
      "max": [
        0.018688298761844635,
        0.002441107528284192,
        0.004711555317044258
      ],
      "min": [
        -0.018688298761844635,
        -0.002240072935819626,
        -0.004711555317044258
      ],
      "type": "VEC3"
    },
    {
      "bufferView": 9,
      "componentType": 5126,
      "count": 48,
      "type": "VEC3"
    },
    {
      "bufferView": 10,
      "componentType": 5126,
      "count": 48,
      "type": "VEC2"
    },
    {
      "bufferView": 11,
      "componentType": 5126,
      "count": 2773,
      "max": [
        0.11034221947193146,
        0.02762935683131218,
        0.023705510422587395
      ],
      "min": [
        -0.09812190383672714,
        -0.012819548137485981,
        -0.023704541847109795
      ],
      "type": "VEC3"
    },
    {
      "bufferView": 12,
      "componentType": 5126,
      "count": 2773,
      "type": "VEC3"
    },
    {
      "bufferView": 13,
      "componentType": 5126,
      "count": 2773,
      "type": "VEC2"
    },
    {
      "bufferView": 14,
      "componentType": 5123,
      "count": 8367,
      "type": "SCALAR"
    }
  ],
  "bufferViews": [
    {
      "buffer": 0,
      "byteLength": 15456,
      "byteOffset": 0,
      "target": 34962
    },
    {
      "buffer": 0,
      "byteLength": 15456,
      "byteOffset": 15456,
      "target": 34962
    },
    {
      "buffer": 0,
      "byteLength": 10304,
      "byteOffset": 30912,
      "target": 34962
    },
    {
      "buffer": 0,
      "byteLength": 9150,
      "byteOffset": 41216,
      "target": 34963
    },
    {
      "buffer": 0,
      "byteLength": 576,
      "byteOffset": 50368,
      "target": 34962
    },
    {
      "buffer": 0,
      "byteLength": 576,
      "byteOffset": 50944,
      "target": 34962
    },
    {
      "buffer": 0,
      "byteLength": 384,
      "byteOffset": 51520,
      "target": 34962
    },
    {
      "buffer": 0,
      "byteLength": 168,
      "byteOffset": 51904,
      "target": 34963
    },
    {
      "buffer": 0,
      "byteLength": 576,
      "byteOffset": 52072,
      "target": 34962
    },
    {
      "buffer": 0,
      "byteLength": 576,
      "byteOffset": 52648,
      "target": 34962
    },
    {
      "buffer": 0,
      "byteLength": 384,
      "byteOffset": 53224,
      "target": 34962
    },
    {
      "buffer": 0,
      "byteLength": 33276,
      "byteOffset": 53608,
      "target": 34962
    },
    {
      "buffer": 0,
      "byteLength": 33276,
      "byteOffset": 86884,
      "target": 34962
    },
    {
      "buffer": 0,
      "byteLength": 22184,
      "byteOffset": 120160,
      "target": 34962
    },
    {
      "buffer": 0,
      "byteLength": 16734,
      "byteOffset": 142344,
      "target": 34963
    }
  ],
  "samplers": [
    {
      "magFilter": 9729,
      "minFilter": 9987
    }
  ],
  "buffers": [
    {
      "byteLength": 159080,
      "uri": "vintage_stapler.bin"
    }
  ]
}